<svg
  id="Capa_1"
  enable-background="new 0 0 497 497"
  height="512"
  viewBox="0 0 497 497"
  width="512"
  xmlns="http://www.w3.org/2000/svg"
>
  <g>
    <g>
      <path
        d="m389.316 77.834h33.133v-71.834c0-3.314-2.686-6-6-6h-21.133c-3.314 0-6 2.686-6 6z"
        fill="#d0e2ed"
      />
      <path
        d="m388.6 43.984h34.567v33.133h-34.567z"
        fill="#aabfcf"
        transform="matrix(0 -1 1 0 345.333 466.433)"
      />
      <path
        d="m364.466 101.4h82.834v-27.133c0-4.418-3.582-8-8-8h-66.833c-4.418 0-8 3.582-8 8v27.133z"
        fill="#fdbe40"
      />
      <path
        d="m424.3 101.4v-27.133c0-4.418-3.582-8-8-8h23c4.418 0 8 3.582 8 8v27.133z"
        fill="#faa83c"
      />
    </g>
    <g>
      <path
        d="m74.55 77.834h33.133v-71.834c0-3.314-2.686-6-6-6h-21.133c-3.314 0-6 2.686-6 6z"
        fill="#d0e2ed"
      />
      <path
        d="m73.834 43.984h34.567v33.133h-34.567z"
        fill="#aabfcf"
        transform="matrix(0 -1 1 0 30.567 151.667)"
      />
      <path
        d="m49.7 101.4h82.833v-27.133c0-4.418-3.582-8-8-8h-66.833c-4.418 0-8 3.582-8 8z"
        fill="#fdbe40"
      />
      <path
        d="m109.534 101.4v-27.133c0-4.418-3.582-8-8-8h23c4.418 0 8 3.582 8 8v27.133z"
        fill="#faa83c"
      />
    </g>
    <path
      d="m497 480.432c0 9.15-7.418 16.568-16.568 16.568h-463.865c-9.15 0-16.567-7.418-16.567-16.568v-364.465c0-9.149 7.417-16.567 16.567-16.567h463.865c9.15 0 16.568 7.418 16.568 16.567z"
      fill="#394d5c"
    />
    <g fill="#2c4252">
      <path
        d="m480.432 99.4h-23c9.15 0 16.568 7.418 16.568 16.567v364.465c0 9.15-7.418 16.567-16.568 16.567h23c9.15 0 16.568-7.418 16.568-16.567v-364.465c0-9.149-7.418-16.567-16.568-16.567z"
      />
      <path
        d="m190.8 463.866h-149.666c-4.418 0-8-3.582-8-8v-215.933c0-4.418 3.582-8 8-8h149.666c4.418 0 8 3.582 8 8v215.933c0 4.419-3.582 8-8 8z"
      />
      <path
        d="m455.866 463.866h-149.666c-4.418 0-8-3.582-8-8v-215.933c0-4.418 3.582-8 8-8h149.666c4.418 0 8 3.582 8 8v215.933c0 4.419-3.581 8-8 8z"
      />
    </g>
    <path
      d="m257.067 331.333h-17.133c-4.418 0-8-3.582-8-8v-17.133c0-4.418 3.582-8 8-8h17.133c4.418 0 8 3.582 8 8v17.133c0 4.418-3.582 8-8 8z"
      fill="#d0e2ed"
    />
    <path
      d="m257.067 397.6h-17.133c-4.418 0-8-3.582-8-8v-17.133c0-4.418 3.582-8 8-8h17.133c4.418 0 8 3.582 8 8v17.133c0 4.418-3.582 8-8 8z"
      fill="#d0e2ed"
    />
    <path
      d="m149.383 198.8h-66.833c-4.418 0-8-3.582-8-8v-17.133c0-4.418 3.582-8 8-8h66.833c4.418 0 8 3.582 8 8v17.133c0 4.418-3.581 8-8 8z"
      fill="#83e85a"
    />
    <path
      d="m414.45 198.8h-66.833c-4.418 0-8-3.582-8-8v-17.133c0-4.418 3.582-8 8-8h66.833c4.418 0 8 3.582 8 8v17.133c0 4.418-3.582 8-8 8z"
      fill="#ff4b68"
    />
    <path
      d="m331.333 273.35v16.567c0 4.575 3.709 8.283 8.283 8.283h49.7c4.575 0 8.283 3.709 8.283 8.283v16.567c0 4.575-3.708 8.283-8.283 8.283h-49.7c-4.575 0-8.283 3.709-8.283 8.283v16.567c0 4.575 3.709 8.283 8.283 8.283h49.7c4.575 0 8.283 3.708 8.283 8.283v16.567c0 4.575-3.708 8.283-8.283 8.283h-49.7c-4.575 0-8.283 3.709-8.283 8.283v16.567c0 4.575 3.709 8.283 8.283 8.283h82.833c4.575 0 8.283-3.708 8.283-8.283v-149.1c0-4.575-3.709-8.283-8.283-8.283h-82.833c-4.574.001-8.283 3.709-8.283 8.284z"
      fill="#d0e2ed"
    />
    <path
      d="m157.383 265.067h-82.833c-4.575 0-8.283 3.709-8.283 8.283v149.1c0 4.575 3.709 8.283 8.283 8.283h82.833c4.575 0 8.283-3.709 8.283-8.283v-149.1c.001-4.575-3.708-8.283-8.283-8.283zm-33.133 132.533h-16.567c-4.575 0-8.283-3.708-8.283-8.283v-82.833c0-4.575 3.709-8.283 8.283-8.283h16.567c4.575 0 8.283 3.709 8.283 8.283v82.833c0 4.574-3.708 8.283-8.283 8.283z"
      fill="#d0e2ed"
    />
    <path
      d="m322.969 99.4-12.621 25.201c-.134.267-.402.433-.701.433h-122.294c-.299 0-.567-.166-.7-.431l-12.591-25.203h-16.74l15.913 31.91c2.691 5.381 8.101 8.724 14.117 8.724h122.294c6.017 0 11.426-3.343 14.115-8.72l15.984-31.914z"
      fill="#2c4252"
    />
    <path
      d="m149.383 165.667h-23c4.418 0 8 3.582 8 8v17.133c0 4.418-3.582 8-8 8h23c4.418 0 8-3.582 8-8v-17.133c0-4.418-3.581-8-8-8z"
      fill="#4ae048"
    />
    <path
      d="m414.45 165.667h-23c4.418 0 8 3.582 8 8v17.133c0 4.418-3.582 8-8 8h23c4.418 0 8-3.582 8-8v-17.133c0-4.418-3.582-8-8-8z"
      fill="#f73152"
    />
    <path
      d="m157.383 265.067h-23c4.575 0 8.283 3.709 8.283 8.283v149.1c0 4.575-3.709 8.283-8.283 8.283h23c4.575 0 8.283-3.709 8.283-8.283v-149.1c.001-4.575-3.708-8.283-8.283-8.283z"
      fill="#aabfcf"
    />
    <path
      d="m422.45 265.067h-23c4.575 0 8.283 3.709 8.283 8.283v149.1c0 4.575-3.709 8.283-8.283 8.283h23c4.575 0 8.283-3.709 8.283-8.283v-149.1c0-4.575-3.709-8.283-8.283-8.283z"
      fill="#aabfcf"
    />
  </g>
</svg>
